<svg xmlns="http://www.w3.org/2000/svg" viewBox="0 0 151.63 51.02">
    <defs>
        <style>.cls-1{fill:#fff;}</style>
    </defs>
    <g id="Livello_2" data-name="Livello 2">
        <g id="europe">
            <path class="cls-1" d="M39.31,38.09H49.85l-.46,1.23H40.76l-1.12,3h8l-.42,1.16h-8L38,46.92h8.78l-.44,1.19H35.6Z" />
            <path class="cls-1" d="M52.69,40.81,50.9,45.66a1.42,1.42,0,0,0-.08.91c.15.44.66.66,1.52.66a3.89,3.89,0,0,0,2.94-1.15,4.78,4.78,0,0,0,1-1.69l1.33-3.58h1.77l-2.7,7.3H55L55.41,47a5,5,0,0,1-1.12.71,6.27,6.27,0,0,1-2.67.57c-1.51,0-2.4-.35-2.68-1a2.06,2.06,0,0,1,.1-1.5l1.84-5Z" />
            <path class="cls-1" d="M61.78,40.81h1.68L63,42.07a5.18,5.18,0,0,1,1.34-.9,4.39,4.39,0,0,1,2.06-.53h.16l.4,0L66.48,42l-.28,0h-.29a4.25,4.25,0,0,0-2.28.59,3,3,0,0,0-1.23,1.38l-1.55,4.2H59.08Z" />
            <path class="cls-1" d="M76.25,44.31a6.08,6.08,0,0,1-2.32,2.92,7.4,7.4,0,0,1-4.27,1.15,4,4,0,0,1-3.08-1,2.56,2.56,0,0,1-.27-2.74,5.78,5.78,0,0,1,2.44-2.94,7.53,7.53,0,0,1,4-1.09,4.48,4.48,0,0,1,3.09.95A2.31,2.31,0,0,1,76.25,44.31Zm-1.86,0a2.52,2.52,0,0,0,.15-1.67c-.26-.67-1-1-2.21-1a4.1,4.1,0,0,0-2.68.85,4.88,4.88,0,0,0-1.51,2.08,2.24,2.24,0,0,0,0,1.94c.3.52,1,.78,2.06.78A4,4,0,0,0,73,46.4,5.43,5.43,0,0,0,74.39,44.34Z" />
            <path class="cls-1" d="M79.1,40.84h1.72l-.35,1A6.3,6.3,0,0,1,81.91,41a6,6,0,0,1,2.26-.41,3.49,3.49,0,0,1,2.69.95,2.47,2.47,0,0,1,.24,2.72A5.78,5.78,0,0,1,84,47.71a6.74,6.74,0,0,1-2.89.65A4,4,0,0,1,79.28,48a2.43,2.43,0,0,1-.79-.71L77.11,51H75.34Zm6.15,3.57a2.68,2.68,0,0,0,.19-1.5q-.24-1.2-2.07-1.2a3.86,3.86,0,0,0-3,1.27,5.36,5.36,0,0,0-1,1.73,2.45,2.45,0,0,0-.16,1.44c.17.76.87,1.14,2.09,1.14a4.13,4.13,0,0,0,2.33-.72A4.21,4.21,0,0,0,85.25,44.41Z" />
            <path class="cls-1" d="M98.21,42a2,2,0,0,1,.23,1.29A5.77,5.77,0,0,1,98,44.85H90.28a2,2,0,0,0,.09,1.78,2.26,2.26,0,0,0,2,.68,4.7,4.7,0,0,0,2.44-.64,3.47,3.47,0,0,0,1-.85H97.5a3.56,3.56,0,0,1-.79.9,5.66,5.66,0,0,1-1.17.8,6.81,6.81,0,0,1-2.27.74,9.93,9.93,0,0,1-1.49.11,4,4,0,0,1-3-1,2.44,2.44,0,0,1-.34-2.78,5.62,5.62,0,0,1,2.44-2.86,7.49,7.49,0,0,1,4-1.1A5.42,5.42,0,0,1,97,41,2.39,2.39,0,0,1,98.21,42Zm-1.67,1.93a2,2,0,0,0,0-1.28c-.26-.59-1-.89-2.1-.89a4.52,4.52,0,0,0-2.27.61,3.36,3.36,0,0,0-1.46,1.56Z" />
            <path class="cls-1" d="M37.86.57H47.5L40,20.71C35.81,30.32,30.59,32.49,26.59,35,21.37,44.55,11.82,48,0,48.37L4.13,36.43c7.51,0,17.2-1.24,20.56-3a80.7,80.7,0,0,0,5.82-13ZM5.92,38.83,3.44,45.69c8.44.17,16.32-4.49,19.68-9.49A67.78,67.78,0,0,1,5.92,38.83Z" />
            <polygon class="cls-1" points="52.1 0.57 64.77 0.57 61.87 20.91 74.71 0.57 88.11 0.57 75.73 34.43 66.71 34.43 74.28 14.48 61.53 34.44 52.79 34.44 55.52 15.09 48.38 34.44 39.72 34.44 52.1 0.57" />
            <path class="cls-1" d="M100.27.57h9V34.43h-8.83V28.62H90.06l-4,5.81H75.71ZM94.6,22h6V13.52Z" />
            <path class="cls-1" d="M151.59,11.76c0-.48-.13-1.36-.27-2.16a9.77,9.77,0,0,0-1.68-3.89c-3.38-4.33-7-5.72-14-5.71h0c-5.26,0-9.77,1-14.1,4.18A24.31,24.31,0,0,0,112,17.63a15.81,15.81,0,0,0-.53,4A12.64,12.64,0,0,0,115.13,31C118,33.87,122,35,128,35H128a22.48,22.48,0,0,0,12.24-3.51,21.27,21.27,0,0,0,8.42-8.82l.21-.42h0l.17-.32h-9.43l-.12.25-.15.2a13,13,0,0,1-3.26,3.22,12,12,0,0,1-7.29,2.45h-.49c-2.94-.12-4.37-.87-5.74-2.63A7.71,7.71,0,0,1,121,20.65a10.34,10.34,0,0,1,.35-2.62A16.76,16.76,0,0,1,126.5,9.8a13.63,13.63,0,0,1,8.38-3.34h.44c2.79,0,4.53.92,5.58,2.19A5.7,5.7,0,0,1,142.13,12v.25a8.56,8.56,0,0,1,0,1h9.49S151.62,12.32,151.59,11.76Z" />
        </g>
    </g>
</svg>